<svg width="219" height="58" viewBox="0 0 219 58" fill="none" xmlns="http://www.w3.org/2000/svg">
<path d="M6.58265 22H1.97693C1.60055 22 1.32322 21.9208 1.14493 21.7623C0.986458 21.584 0.90722 21.3067 0.90722 20.9303V1.67542C0.90722 1.29904 0.986458 1.03161 1.14493 0.873137C1.32322 0.694851 1.60055 0.605709 1.97693 0.605709H6.58265C6.95903 0.605709 7.22646 0.694851 7.38494 0.873137C7.56322 1.03161 7.65236 1.29904 7.65236 1.67542V8.12343H12.6147V1.67542C12.6147 1.29904 12.6939 1.03161 12.8524 0.873137C13.0307 0.694851 13.308 0.605709 13.6844 0.605709H18.2901C18.6665 0.605709 18.9339 0.694851 19.0924 0.873137C19.2707 1.03161 19.3598 1.29904 19.3598 1.67542V20.9303C19.3598 21.3067 19.2707 21.584 19.0924 21.7623C18.9339 21.9208 18.6665 22 18.2901 22H13.6844C13.308 22 13.0307 21.9208 12.8524 21.7623C12.6939 21.584 12.6147 21.3067 12.6147 20.9303V14.3337H7.65236V20.9303C7.65236 21.3067 7.56322 21.584 7.38494 21.7623C7.22646 21.9208 6.95903 22 6.58265 22ZM47.5227 16.384C47.5227 17.2952 47.384 18.1272 47.1067 18.88C46.8492 19.613 46.3737 20.2469 45.6804 20.7817C45.0069 21.2968 44.0659 21.7029 42.8575 22C41.669 22.2971 40.1535 22.4457 38.3112 22.4457C36.469 22.4457 34.9436 22.2971 33.7352 22C32.5269 21.7029 31.576 21.2968 30.8827 20.7817C30.2091 20.2469 29.7337 19.613 29.4564 18.88C29.1989 18.1272 29.0701 17.2952 29.0701 16.384V6.25142C29.0701 5.34019 29.1989 4.51809 29.4564 3.78514C29.7337 3.03238 30.2091 2.38857 30.8827 1.85371C31.576 1.31885 32.5269 0.902851 33.7352 0.605709C34.9436 0.308566 36.469 0.159995 38.3112 0.159995C40.1535 0.159995 41.669 0.308566 42.8575 0.605709C44.0659 0.902851 45.0069 1.31885 45.6804 1.85371C46.3737 2.38857 46.8492 3.03238 47.1067 3.78514C47.384 4.51809 47.5227 5.34019 47.5227 6.25142V16.384ZM35.8152 15.3143C35.8152 15.7105 35.9638 16.0472 36.261 16.3246C36.5581 16.5821 37.2415 16.7109 38.3112 16.7109C39.381 16.7109 40.0644 16.5821 40.3615 16.3246C40.6587 16.0472 40.8072 15.7105 40.8072 15.3143V7.32114C40.8072 6.94476 40.6587 6.62781 40.3615 6.37028C40.0644 6.09295 39.381 5.95428 38.3112 5.95428C37.2415 5.95428 36.5581 6.09295 36.261 6.37028C35.9638 6.62781 35.8152 6.94476 35.8152 7.32114V15.3143ZM62.7455 22H58.318C57.9416 22 57.6643 21.9208 57.486 21.7623C57.3275 21.584 57.2483 21.3067 57.2483 20.9303V1.67542C57.2483 1.29904 57.3275 1.03161 57.486 0.873137C57.6643 0.694851 57.9416 0.605709 58.318 0.605709H63.102C63.419 0.605709 63.6765 0.675042 63.8746 0.813708C64.0925 0.952375 64.2906 1.18018 64.4689 1.49714L67.1432 6.34057C67.2422 6.51885 67.3215 6.64762 67.3809 6.72685C67.4601 6.80609 67.5592 6.84571 67.678 6.84571H67.9455C68.0643 6.84571 68.1535 6.80609 68.2129 6.72685C68.2921 6.64762 68.3813 6.51885 68.4803 6.34057L71.1249 1.49714C71.3032 1.18018 71.4914 0.952375 71.6895 0.813708C71.9074 0.675042 72.1748 0.605709 72.4917 0.605709H77.3055C77.6818 0.605709 77.9493 0.694851 78.1077 0.873137C78.286 1.03161 78.3752 1.29904 78.3752 1.67542V20.9303C78.3752 21.3067 78.286 21.584 78.1077 21.7623C77.9493 21.9208 77.6818 22 77.3055 22H72.7295C72.3531 22 72.0757 21.9208 71.8975 21.7623C71.739 21.584 71.6597 21.3067 71.6597 20.9303V10.4709L69.9066 13.7097C69.7283 14.0465 69.5104 14.2941 69.2529 14.4526C69.0152 14.5912 68.7081 14.6606 68.3317 14.6606H67.1432C66.7668 14.6606 66.4498 14.5912 66.1923 14.4526C65.9546 14.2941 65.7466 14.0465 65.5683 13.7097L63.8152 10.4709V20.9303C63.8152 21.3067 63.726 21.584 63.5477 21.7623C63.3893 21.9208 63.1218 22 62.7455 22ZM103.265 22H89.4774C89.101 22 88.8237 21.9208 88.6454 21.7623C88.4869 21.584 88.4077 21.3067 88.4077 20.9303V1.67542C88.4077 1.29904 88.4869 1.03161 88.6454 0.873137C88.8237 0.694851 89.101 0.605709 89.4774 0.605709H103.265C103.641 0.605709 103.909 0.694851 104.067 0.873137C104.245 1.03161 104.335 1.29904 104.335 1.67542V5.152C104.335 5.52838 104.245 5.80571 104.067 5.984C103.909 6.14247 103.641 6.22171 103.265 6.22171H95.0637V8.50971H100.858C101.234 8.50971 101.502 8.59885 101.66 8.77714C101.839 8.93562 101.928 9.20304 101.928 9.57943V12.7589C101.928 13.1352 101.839 13.4126 101.66 13.5909C101.502 13.7493 101.234 13.8286 100.858 13.8286H95.0637V16.384H103.265C103.641 16.384 103.909 16.4731 104.067 16.6514C104.245 16.8099 104.335 17.0773 104.335 17.4537V20.9303C104.335 21.3067 104.245 21.584 104.067 21.7623C103.909 21.9208 103.641 22 103.265 22ZM129.155 0.605709H133.582C133.959 0.605709 134.226 0.694851 134.385 0.873137C134.563 1.03161 134.652 1.29904 134.652 1.67542V13.2046C134.652 13.8385 134.622 14.4328 134.563 14.9874C134.523 15.5223 134.375 16.1562 134.117 16.8891L132.631 20.9303C132.532 21.2274 132.384 21.485 132.186 21.7029C132.007 21.901 131.76 22 131.443 22H127.491C127.174 22 126.887 21.9307 126.629 21.792C126.372 21.6533 126.203 21.4255 126.124 21.1086L124.757 16.2651C124.698 16.067 124.618 15.9383 124.519 15.8789C124.44 15.7996 124.341 15.76 124.222 15.76H123.955C123.836 15.76 123.727 15.7996 123.628 15.8789C123.549 15.9383 123.479 16.067 123.42 16.2651L122.023 21.1086C121.944 21.4057 121.796 21.6335 121.578 21.792C121.36 21.9307 121.092 22 120.775 22H116.853C116.536 22 116.259 21.901 116.021 21.7029C115.803 21.5048 115.645 21.2472 115.546 20.9303L114.06 16.8297C113.802 16.0968 113.644 15.4629 113.585 14.928C113.545 14.3733 113.525 13.779 113.525 13.1451V1.67542C113.525 1.29904 113.604 1.03161 113.763 0.873137C113.941 0.694851 114.218 0.605709 114.595 0.605709H119.171C119.547 0.605709 119.815 0.694851 119.973 0.873137C120.151 1.03161 120.241 1.29904 120.241 1.67542V12.6103L121.964 8.86628C122.122 8.52952 122.33 8.29181 122.588 8.15314C122.845 8.01447 123.162 7.94514 123.539 7.94514H124.787C125.163 7.94514 125.48 8.01447 125.738 8.15314C125.995 8.29181 126.203 8.52952 126.362 8.86628L128.085 12.6103V1.67542C128.085 1.29904 128.164 1.03161 128.323 0.873137C128.501 0.694851 128.778 0.605709 129.155 0.605709ZM162.555 16.384C162.555 17.2952 162.417 18.1272 162.139 18.88C161.882 19.613 161.406 20.2469 160.713 20.7817C160.039 21.2968 159.099 21.7029 157.89 22C156.702 22.2971 155.186 22.4457 153.344 22.4457C151.502 22.4457 149.976 22.2971 148.768 22C147.559 21.7029 146.609 21.2968 145.915 20.7817C145.242 20.2469 144.766 19.613 144.489 18.88C144.231 18.1272 144.103 17.2952 144.103 16.384V6.25142C144.103 5.34019 144.231 4.51809 144.489 3.78514C144.766 3.03238 145.242 2.38857 145.915 1.85371C146.609 1.31885 147.559 0.902851 148.768 0.605709C149.976 0.308566 151.502 0.159995 153.344 0.159995C155.186 0.159995 156.702 0.308566 157.89 0.605709C159.099 0.902851 160.039 1.31885 160.713 1.85371C161.406 2.38857 161.882 3.03238 162.139 3.78514C162.417 4.51809 162.555 5.34019 162.555 6.25142V16.384ZM150.848 15.3143C150.848 15.7105 150.996 16.0472 151.294 16.3246C151.591 16.5821 152.274 16.7109 153.344 16.7109C154.414 16.7109 155.097 16.5821 155.394 16.3246C155.691 16.0472 155.84 15.7105 155.84 15.3143V7.32114C155.84 6.94476 155.691 6.62781 155.394 6.37028C155.097 6.09295 154.414 5.95428 153.344 5.95428C152.274 5.95428 151.591 6.09295 151.294 6.37028C150.996 6.62781 150.848 6.94476 150.848 7.32114V15.3143ZM178.996 5.95428V9.75771H181.225C181.74 9.75771 182.087 9.62895 182.265 9.37143C182.443 9.09409 182.532 8.75733 182.532 8.36114V7.35085C182.532 6.95466 182.443 6.62781 182.265 6.37028C182.087 6.09295 181.74 5.95428 181.225 5.95428H178.996ZM177.927 22H173.351C172.974 22 172.697 21.9208 172.519 21.7623C172.36 21.584 172.281 21.3067 172.281 20.9303V1.67542C172.281 1.29904 172.36 1.03161 172.519 0.873137C172.697 0.694851 172.974 0.605709 173.351 0.605709H183.245C185.464 0.605709 186.989 1.07123 187.821 2.00228C188.673 2.91352 189.099 4.10209 189.099 5.568V6.93485C189.099 7.76685 188.97 8.48 188.713 9.07428C188.475 9.64876 188.049 10.0648 187.435 10.3223C188.505 10.4411 189.367 10.8769 190.02 11.6297C190.694 12.3825 191.031 13.3829 191.031 14.6309V20.9303C191.031 21.3067 190.941 21.584 190.763 21.7623C190.605 21.9208 190.337 22 189.961 22H185.355C184.979 22 184.701 21.9208 184.523 21.7623C184.365 21.584 184.285 21.3067 184.285 20.9303V16.384C184.285 15.9482 184.196 15.6312 184.018 15.4331C183.86 15.2152 183.572 15.1063 183.156 15.1063H178.996V20.9303C178.996 21.3067 178.907 21.584 178.729 21.7623C178.57 21.9208 178.303 22 177.927 22ZM205.982 22H201.376C201 22 200.722 21.9208 200.544 21.7623C200.386 21.584 200.306 21.3067 200.306 20.9303V1.67542C200.306 1.29904 200.386 1.03161 200.544 0.873137C200.722 0.694851 201 0.605709 201.376 0.605709H205.982C206.358 0.605709 206.626 0.694851 206.784 0.873137C206.962 1.03161 207.052 1.29904 207.052 1.67542V8.50971H208.24L211.301 1.58628C211.439 1.22971 211.628 0.982089 211.865 0.843423C212.103 0.684947 212.41 0.605709 212.786 0.605709H217.362C217.699 0.605709 217.927 0.694851 218.046 0.873137C218.165 1.03161 218.155 1.26933 218.016 1.58628L214.985 8.50971C216.095 8.56914 216.976 8.96533 217.63 9.69828C218.303 10.4114 218.64 11.3623 218.64 12.5509V20.9303C218.64 21.3067 218.551 21.584 218.373 21.7623C218.214 21.9208 217.947 22 217.57 22H212.994C212.618 22 212.341 21.9208 212.162 21.7623C212.004 21.584 211.925 21.3067 211.925 20.9303V15.136C211.925 14.819 211.845 14.5714 211.687 14.3931C211.528 14.2149 211.291 14.1257 210.974 14.1257H207.052V20.9303C207.052 21.3067 206.962 21.584 206.784 21.7623C206.626 21.9208 206.358 22 205.982 22ZM6.58265 58H1.97693C1.60055 58 1.32322 57.9208 1.14493 57.7623C0.986458 57.584 0.90722 57.3067 0.90722 56.9303V37.6754C0.90722 37.299 0.986458 37.0316 1.14493 36.8731C1.32322 36.6949 1.60055 36.6057 1.97693 36.6057H6.58265C6.95903 36.6057 7.22646 36.6949 7.38494 36.8731C7.56322 37.0316 7.65236 37.299 7.65236 37.6754V44.1234H12.6147V37.6754C12.6147 37.299 12.6939 37.0316 12.8524 36.8731C13.0307 36.6949 13.308 36.6057 13.6844 36.6057H18.2901C18.6665 36.6057 18.9339 36.6949 19.0924 36.8731C19.2707 37.0316 19.3598 37.299 19.3598 37.6754V56.9303C19.3598 57.3067 19.2707 57.584 19.0924 57.7623C18.9339 57.9208 18.6665 58 18.2901 58H13.6844C13.308 58 13.0307 57.9208 12.8524 57.7623C12.6939 57.584 12.6147 57.3067 12.6147 56.9303V50.3337H7.65236V56.9303C7.65236 57.3067 7.56322 57.584 7.38494 57.7623C7.22646 57.9208 6.95903 58 6.58265 58ZM44.2541 58H30.4667C30.0903 58 29.813 57.9208 29.6347 57.7623C29.4762 57.584 29.397 57.3067 29.397 56.9303V37.6754C29.397 37.299 29.4762 37.0316 29.6347 36.8731C29.813 36.6949 30.0903 36.6057 30.4667 36.6057H44.2541C44.6305 36.6057 44.8979 36.6949 45.0564 36.8731C45.2347 37.0316 45.3238 37.299 45.3238 37.6754V41.152C45.3238 41.5284 45.2347 41.8057 45.0564 41.984C44.8979 42.1425 44.6305 42.2217 44.2541 42.2217H36.053V44.5097H41.8472C42.2236 44.5097 42.4911 44.5989 42.6495 44.7771C42.8278 44.9356 42.917 45.203 42.917 45.5794V48.7589C42.917 49.1352 42.8278 49.4126 42.6495 49.5909C42.4911 49.7493 42.2236 49.8286 41.8472 49.8286H36.053V52.384H44.2541C44.6305 52.384 44.8979 52.4731 45.0564 52.6514C45.2347 52.8099 45.3238 53.0773 45.3238 53.4537V56.9303C45.3238 57.3067 45.2347 57.584 45.0564 57.7623C44.8979 57.9208 44.6305 58 44.2541 58ZM70.9761 58H55.8515C55.4751 58 55.1978 57.9208 55.0195 57.7623C54.861 57.584 54.7818 57.3067 54.7818 56.9303V37.6754C54.7818 37.299 54.861 37.0316 55.0195 36.8731C55.1978 36.6949 55.4751 36.6057 55.8515 36.6057H60.4572C60.8336 36.6057 61.101 36.6949 61.2595 36.8731C61.4378 37.0316 61.5269 37.299 61.5269 37.6754V52.384H65.5978V47.5703C65.5978 47.1939 65.677 46.9265 65.8355 46.768C66.0138 46.5897 66.2911 46.5006 66.6675 46.5006H70.9761C71.3525 46.5006 71.6199 46.5897 71.7784 46.768C71.9566 46.9265 72.0458 47.1939 72.0458 47.5703V56.9303C72.0458 57.3067 71.9566 57.584 71.7784 57.7623C71.6199 57.9208 71.3525 58 70.9761 58ZM87.0608 58H82.4551C82.0787 58 81.8014 57.9208 81.6231 57.7623C81.4646 57.584 81.3854 57.3067 81.3854 56.9303V37.6754C81.3854 37.299 81.4646 37.0316 81.6231 36.8731C81.8014 36.6949 82.0787 36.6057 82.4551 36.6057H91.5477C94.2417 36.6057 96.084 37.1406 97.0745 38.2103C98.065 39.28 98.5602 40.6766 98.5602 42.4V46.2034C98.5602 47.9269 98.065 49.3234 97.0745 50.3931C96.084 51.4629 94.2417 51.9977 91.5477 51.9977H88.1305V56.9303C88.1305 57.3067 88.0414 57.584 87.8631 57.7623C87.7046 57.9208 87.4372 58 87.0608 58ZM88.0711 42.1623V46.6491H90.7454C91.3198 46.6491 91.6962 46.5006 91.8745 46.2034C92.0528 45.9063 92.1419 45.5695 92.1419 45.1931V43.6183C92.1419 43.2419 92.0528 42.9051 91.8745 42.608C91.6962 42.3109 91.3198 42.1623 90.7454 42.1623H88.0711ZM122.44 58H108.652C108.276 58 107.999 57.9208 107.82 57.7623C107.662 57.584 107.583 57.3067 107.583 56.9303V37.6754C107.583 37.299 107.662 37.0316 107.82 36.8731C107.999 36.6949 108.276 36.6057 108.652 36.6057H122.44C122.816 36.6057 123.084 36.6949 123.242 36.8731C123.42 37.0316 123.51 37.299 123.51 37.6754V41.152C123.51 41.5284 123.42 41.8057 123.242 41.984C123.084 42.1425 122.816 42.2217 122.44 42.2217H114.239V44.5097H120.033C120.409 44.5097 120.677 44.5989 120.835 44.7771C121.014 44.9356 121.103 45.203 121.103 45.5794V48.7589C121.103 49.1352 121.014 49.4126 120.835 49.5909C120.677 49.7493 120.409 49.8286 120.033 49.8286H114.239V52.384H122.44C122.816 52.384 123.084 52.4731 123.242 52.6514C123.42 52.8099 123.51 53.0773 123.51 53.4537V56.9303C123.51 57.3067 123.42 57.584 123.242 57.7623C123.084 57.9208 122.816 58 122.44 58ZM139.683 41.9543V45.7577H141.912C142.427 45.7577 142.773 45.6289 142.952 45.3714C143.13 45.0941 143.219 44.7573 143.219 44.3611V43.3509C143.219 42.9547 143.13 42.6278 142.952 42.3703C142.773 42.0929 142.427 41.9543 141.912 41.9543H139.683ZM138.613 58H134.037C133.661 58 133.384 57.9208 133.205 57.7623C133.047 57.584 132.968 57.3067 132.968 56.9303V37.6754C132.968 37.299 133.047 37.0316 133.205 36.8731C133.384 36.6949 133.661 36.6057 134.037 36.6057H143.932C146.151 36.6057 147.676 37.0712 148.508 38.0023C149.36 38.9135 149.786 40.1021 149.786 41.568V42.9349C149.786 43.7669 149.657 44.48 149.4 45.0743C149.162 45.6488 148.736 46.0648 148.122 46.3223C149.192 46.4411 150.053 46.8769 150.707 47.6297C151.38 48.3825 151.717 49.3829 151.717 50.6309V56.9303C151.717 57.3067 151.628 57.584 151.45 57.7623C151.291 57.9208 151.024 58 150.648 58H146.042C145.665 58 145.388 57.9208 145.21 57.7623C145.051 57.584 144.972 57.3067 144.972 56.9303V52.384C144.972 51.9482 144.883 51.6312 144.705 51.4331C144.546 51.2152 144.259 51.1063 143.843 51.1063H139.683V56.9303C139.683 57.3067 139.594 57.584 139.416 57.7623C139.257 57.9208 138.99 58 138.613 58Z" fill="black"/>
</svg>
